# xmcd CD database file
#
# Track frame offsets:
#	150
#	17587
#	37225
#	54660
#	74372
#
# Disc length: 1220 seconds
#
# Revision: 0
# Processed by: cddbd v1.5PL3 Copyright (c) Steve Scherf et al.
# Submitted via: CDex 1.50Beta7
#
DISCID=4204c205
DTITLE=要ミライ(野上ゆかな) - 真・女神転生デビチル キャラクターズファイル2 要ミライ
DYEAR=2000
DGENRE=Anime
TTITLE0=本当は-Here we go-
TTITLE1=PEACE RUSH!!
TTITLE2=本当は-Here we go-(カラオケ)
TTITLE3=PEACE RUSH!!(カラオケ)
TTITLE4="デビチル"おまけボイス 要ミライ
EXTD=YEAR: 2000
EXTT0=
EXTT1=
EXTT2=
EXTT3=
EXTT4=
PLAYORDER=
